<svg id="Layer_1" data-name="Layer 1" xmlns="http://www.w3.org/2000/svg" viewBox="0 0 443.41 98.93"><defs><style>.cls-1{fill:#231f20;}</style></defs><title>Logo</title><path class="cls-1" d="M66.52,29.9h9.25L56,71.17,36.22,29.9h9.19L56,55.3Z"/><path class="cls-1" d="M88.07,29.9v39H80v-39Z"/><path class="cls-1" d="M104.17,29.9v39H96.48v-39Zm-2.56,0h19.66v6.74H101.61Zm0,15h18.54v6.63H101.61Zm0,17.27h19.66v6.74H101.61Z"/><path class="cls-1" d="M164.54,29.9V70.84L136.8,44.72V68.89h-7.68V28l27.73,26.12V29.9Z"/><path class="cls-1" d="M208.43,29.9V70.84L180.69,44.72V68.89H173V28l27.73,26.12V29.9Z"/><path class="cls-1" d="M226.64,56l.17,1.78-5.13,11.14h-9l19.78-41.27,19.77,41.27h-9l-5-10.81.11-2-5.84-13.53Zm-3.4-2.23H242l1,6.29H222.29Z"/><path class="cls-1" d="M267,69.33a6.18,6.18,0,0,0,2.83.29,3.49,3.49,0,0,0,2.28-1.06,3.75,3.75,0,0,0,1.08-3.09V27.9h8.35V67a9.3,9.3,0,0,1-.86,4.16A7.59,7.59,0,0,1,278.24,74a11.1,11.1,0,0,1-3.68,1.63,18.85,18.85,0,0,1-4.48.52,15,15,0,0,1-3.76-.47,20.32,20.32,0,0,1-3.23-1.09,12.73,12.73,0,0,1-2.31-1.24L264.72,68A11.82,11.82,0,0,0,267,69.33Z"/><path class="cls-1" d="M299.76,56l.17,1.78-5.12,11.14h-9l19.77-41.27,19.77,41.27h-9l-5-10.81.11-2-5.85-13.53Zm-3.4-2.23h18.72L316,60h-20.6Z"/><path class="cls-1" d="M365,29.9V70.84L337.3,44.72V68.89h-7.69V28l27.74,26.12V29.9Z"/><path class="cls-1" d="M381.18,29.9v39H373.5v-39Zm-2.56,0h19.66v6.74H378.62Zm0,15h18.55v6.63H378.62Zm0,17.27h19.66v6.74H378.62Z"/></svg>